<svg xmlns="http://www.w3.org/2000/svg" width="23" height="205" viewBox="0 0 23 205">
    <defs>
        <radialGradient id="a" r="63.009%" fx="50%" fy="50%" gradientTransform="matrix(0 1 -1.0128 0 1.006 0)">
            <stop offset="0%" stop-color="#DD3535"/>
            <stop offset="100%" stop-color="#6F0606"/>
        </radialGradient>
        <radialGradient id="b" r="63.009%" fx="50%" fy="50%" gradientTransform="matrix(0 1 -1.0128 0 1.006 0)">
            <stop offset="0%" stop-color="#515151"/>
            <stop offset="100%"/>
        </radialGradient>
    </defs>
    <g fill="none" fill-rule="evenodd">
        <g>
            <rect width="23" height="23" fill="#FFF" rx="4"/>
            <circle cx="11.5" cy="11.5" r="2.5" fill="url(#a)"/>
        </g>
        <g transform="translate(0 90)">
            <rect width="23" height="23" fill="#FFF" rx="4"/>
            <circle cx="6.5" cy="6.5" r="2.5" fill="url(#a)"/>
            <circle cx="16.5" cy="6.5" r="2.5" fill="url(#a)"/>
            <circle cx="6.5" cy="16.5" r="2.5" fill="url(#a)"/>
            <circle cx="16.5" cy="16.5" r="2.5" fill="url(#a)"/>
        </g>
        <g transform="translate(0 62)">
            <rect width="23" height="23" fill="#FFF" rx="4"/>
            <circle cx="5.5" cy="5.5" r="2.5" fill="url(#b)"/>
            <circle cx="11.5" cy="11.5" r="2.5" fill="url(#b)"/>
            <circle cx="17.5" cy="17.5" r="2.5" fill="url(#b)"/>
        </g>
        <g transform="translate(0 121)">
            <rect width="23" height="23" fill="#FFF" rx="4"/>
            <circle cx="5.5" cy="5.5" r="2.5" fill="url(#b)"/>
            <circle cx="11.5" cy="11.5" r="2.5" fill="url(#b)"/>
            <circle cx="17.5" cy="17.5" r="2.5" fill="url(#b)"/>
            <circle cx="17.5" cy="5.5" r="2.5" fill="url(#b)" transform="rotate(90 17.5 5.5)"/>
            <circle cx="5.5" cy="17.5" r="2.5" fill="url(#b)" transform="rotate(90 5.5 17.5)"/>
        </g>
        <g transform="translate(0 152)">
            <rect width="23" height="23" fill="#FFF" rx="4"/>
            <circle cx="5.5" cy="5.5" r="2.5" fill="url(#b)" transform="rotate(90 5.5 5.5)"/>
            <circle cx="5.5" cy="11.5" r="2.5" fill="url(#b)" transform="rotate(90 5.5 11.5)"/>
            <circle cx="5.5" cy="17.5" r="2.5" fill="url(#b)" transform="rotate(90 5.5 17.5)"/>
            <circle cx="17.5" cy="5.5" r="2.5" fill="url(#b)" transform="rotate(90 17.5 5.5)"/>
            <circle cx="17.5" cy="11.5" r="2.5" fill="url(#b)" transform="rotate(90 17.5 11.5)"/>
            <circle cx="17.5" cy="17.5" r="2.5" fill="url(#b)" transform="rotate(90 17.5 17.5)"/>
        </g>
        <g transform="translate(0 31)">
            <rect width="23" height="23" fill="#FFF" rx="4"/>
            <circle cx="6.5" cy="6.5" r="2.5" fill="url(#b)"/>
            <circle cx="16.5" cy="16.5" r="2.5" fill="url(#b)"/>
        </g>
    </g>
</svg>
