<svg xmlns="http://www.w3.org/2000/svg" width="103" height="103" viewBox="0 0 103 103">
    <path fill="#072810" fill-rule="nonzero" d="M51.499 0C23.067 0 .002 23.036.002 51.47c0 28.46 23.065 51.523 51.496 51.523 28.447 0 51.493-23.063 51.493-51.523C102.991 23.036 79.945 0 51.5 0zm3.67 80.124c-1.197 1.064-2.583 1.6-4.153 1.6-1.625 0-3.042-.526-4.251-1.579-1.212-1.05-1.819-2.522-1.819-4.412 0-1.677.588-3.089 1.759-4.232 1.17-1.144 2.607-1.716 4.311-1.716 1.677 0 3.088.572 4.234 1.716 1.144 1.143 1.718 2.555 1.718 4.232-.003 1.863-.602 3.327-1.8 4.39zM70.081 43.15c-.919 1.704-2.01 3.173-3.276 4.412-1.262 1.24-3.532 3.321-6.809 6.248-.903.826-1.63 1.551-2.175 2.175-.544.627-.952 1.198-1.217 1.718a8.275 8.275 0 0 0-.619 1.559c-.145.517-.364 1.43-.66 2.735-.505 2.768-2.088 4.152-4.75 4.152-1.384 0-2.548-.452-3.496-1.357-.944-.905-1.415-2.249-1.415-4.032 0-2.235.347-4.172 1.04-5.81a14.683 14.683 0 0 1 2.752-4.313c1.146-1.239 2.689-2.709 4.633-4.413 1.704-1.49 2.935-2.615 3.693-3.373.76-.76 1.398-1.605 1.916-2.535a6.105 6.105 0 0 0 .777-3.034c0-2.13-.789-3.926-2.374-5.39-1.584-1.463-3.628-2.196-6.13-2.196-2.93 0-5.085.739-6.47 2.216-1.384 1.477-2.552 3.652-3.512 6.527-.907 3.009-2.625 4.513-5.151 4.513-1.49 0-2.749-.525-3.774-1.576-1.024-1.05-1.536-2.189-1.536-3.414 0-2.528.812-5.09 2.435-7.686 1.625-2.596 3.994-4.746 7.109-6.448 3.113-1.704 6.748-2.557 10.899-2.557 3.86 0 7.265.713 10.22 2.138 2.954 1.423 5.238 3.36 6.849 5.81 1.609 2.448 2.415 5.11 2.415 7.985.004 2.259-.455 4.242-1.374 5.946z"/>
</svg>
